<svg height='300px' width='300px'  fill="#000000" xmlns="http://www.w3.org/2000/svg" xmlns:xlink="http://www.w3.org/1999/xlink" version="1.1" x="0px" y="0px" viewBox="0 0 100 100" enable-background="new 0 0 100 100" xml:space="preserve"><g><path fill-rule="evenodd" clip-rule="evenodd" d="M43.935,55.618c0,1.958,1.427,3.123,4.277,3.501v-7.043   c-1.214,0.012-2.231,0.317-3.051,0.912C44.345,53.581,43.935,54.458,43.935,55.618z"></path><path fill-rule="evenodd" clip-rule="evenodd" d="M51.048,64.552v8.03c1.31-0.02,2.411-0.401,3.298-1.156   c0.886-0.755,1.331-1.74,1.331-2.958C55.679,66.429,54.133,65.121,51.048,64.552z"></path><path fill-rule="evenodd" clip-rule="evenodd" d="M41.062,22.734c0.198-0.104,0.404-0.174,0.621-0.174L58.5,22.557   c0.116,0,0.232,0.029,0.346,0.064c1.607-2.208,3.414-5.137,5.631-8.975c4.326-7.484-6.427-7.443-14.46-7.443   c-8.028,0-18.458-0.201-14.623,7.443C37.27,17.386,39.176,20.404,41.062,22.734z"></path><path fill-rule="evenodd" clip-rule="evenodd" d="M60.513,27.662c-0.311,1.409-1.098,2.408-2.016,2.408H41.686   c-1.055,0-1.932-1.302-2.13-3.022c-12.435,7.54-22.581,26.849-22.581,42.061c0,19.324,14.786,24.687,33.023,24.687   c18.243,0,33.025-5.364,33.025-24.687C83.024,54.293,72.117,35.594,60.513,27.662z M57.922,73.71   c-1.58,1.54-3.873,2.44-6.877,2.708l0.003,3.876h-2.836v-3.876c-5.198-0.436-8.527-2.949-9.98-7.549l4.509-1.052   c0.811,2.952,2.635,4.538,5.471,4.765v-8.286c-3.702-0.848-6.113-1.929-7.232-3.239c-1.119-1.308-1.679-2.868-1.679-4.684   c0.003-4.712,2.972-7.429,8.911-8.158v-3.019h2.836v3.019c4.341,0.561,7.089,2.705,8.234,6.435l-4.256,0.901   c-0.726-2.15-2.051-3.309-3.98-3.475l0.003,7.316c2.734,0.782,4.579,1.38,5.529,1.801c0.953,0.418,1.807,1.238,2.571,2.452   c0.758,1.217,1.139,2.644,1.139,4.282C60.287,70.246,59.502,72.176,57.922,73.71z"></path></g></svg>